<svg xmlns="http://www.w3.org/2000/svg" viewBox="0 0 1080 640">
<defs><path id="s0" d="M21.6 20.6 L30.4 20.6 L39.2 20.7 L48.1 20.8 L56.9 20.9 L65.7 21.1 L74.5 21.2 L83.3 21.3 L92.2 21.4 L101.0 21.6 L109.8 21.7 L118.6 21.8 L127.4 21.9 L136.3 22.0 L145.1 22.2 L153.9 22.3 L162.7 22.5 L171.5 22.7 L180.4 22.9 L189.2 23.0 L198.0 23.2 L206.8 23.7 L215.6 24.5 L224.5 25.7 L233.3 27.1 L242.1 28.9 L250.9 31.0 L259.7 33.4 L268.6 36.1 L277.4 39.1 L286.2 42.3 L295.0 45.9 L303.8 49.6 L312.7 53.6 L321.5 57.9 L330.3 62.3 L339.1 66.9 L347.9 71.7 L356.8 76.7 L365.6 81.8 L374.4 87.1 L383.2 92.5 L392.0 98.0 L400.9 103.6 L409.7 109.3 L418.5 115.1 L427.3 120.9 L436.1 126.7 L445.0 132.6 L453.8 138.5 L462.6 144.3 L471.4 150.2 L480.2 156.0 L489.1 161.8 L497.9 167.5 L506.7 173.1 L515.5 178.8 L524.3 184.3 L533.2 189.8 L542.0 195.1 L550.8 200.4 L559.6 205.6 L568.4 210.7 L577.3 215.6 L586.1 220.4 L594.9 225.0 L603.7 229.4 L612.5 233.6 L621.4 237.7 L630.2 241.5 L639.0 245.1 L647.8 248.4 L656.6 251.5 L665.5 254.3 L674.3 256.8 L683.1 259.0 L691.9 261.0 L700.7 262.6 L709.6 263.8 L718.4 264.7 L727.2 265.3 L736.0 265.4 L744.8 265.5 L753.7 265.6 L762.5 265.6 L771.3 265.7 L780.1 265.8 L788.9 265.9 L797.8 266.0 L806.6 266.1 L815.4 266.1 L824.2 266.2 L833.0 266.3 L841.9 266.4 L850.7 266.4 L859.5 266.5 L868.3 266.5 L877.1 266.6 L886.0 266.6 L894.8 266.6 L903.6 266.7 L912.4 266.7 L921.2 266.8 L930.1 266.8 L938.9 266.8 L947.7 266.8 L956.5 266.8 L965.3 266.8 L974.2 266.8 L983.0 266.8 L991.8 266.7 L1000.6 266.7 L1009.4 266.6 L1018.3 266.6 L1027.1 266.5 L1035.9 266.4 L1044.7 266.4 L1053.5 266.3 L1062.4 266.2 L1071.2 266.1 L1080.0 266.0" fill="none"/>
<path id="s1" d="M129.6 408.1 L137.5 408.1 L145.4 408.0 L153.4 408.0 L161.3 407.9 L169.2 407.9 L177.1 407.8 L185.0 407.7 L193.0 407.7 L200.9 407.6 L208.8 407.3 L216.7 407.0 L224.6 406.5 L232.6 405.9 L240.5 405.1 L248.4 404.3 L256.3 403.4 L264.2 402.4 L272.2 401.3 L280.1 400.2 L288.0 398.9 L295.9 397.5 L303.8 396.0 L311.8 394.5 L319.7 392.9 L327.6 391.1 L335.5 389.3 L343.4 387.4 L351.4 385.4 L359.3 383.3 L367.2 381.1 L375.1 378.9 L383.0 376.6 L391.0 374.2 L398.9 371.8 L406.8 369.4 L414.7 366.9 L422.6 364.4 L430.6 361.9 L438.5 359.5 L446.4 357.0 L454.3 354.5 L462.2 352.1 L470.2 349.6 L478.1 347.2 L486.0 344.8 L493.9 342.4 L501.8 340.1 L509.8 337.7 L517.7 335.4 L525.6 333.2 L533.5 330.9 L541.4 328.7 L549.4 326.6 L557.3 324.5 L565.2 322.4 L573.1 320.4 L581.0 318.5 L589.0 316.6 L596.9 314.8 L604.8 313.0 L612.7 311.3 L620.6 309.7 L628.6 308.2 L636.5 306.7 L644.4 305.3 L652.3 304.1 L660.2 302.9 L668.2 301.8 L676.1 300.8 L684.0 299.9 L691.9 299.2 L699.8 298.6 L707.8 298.1 L715.7 297.7 L723.6 297.5 L731.5 297.4 L739.4 297.4 L747.4 297.5 L755.3 297.5 L763.2 297.5 L771.1 297.5 L779.0 297.5 L787.0 297.5 L794.9 297.4 L802.8 297.3 L810.7 297.2 L818.6 297.1 L826.6 297.0 L834.5 296.9 L842.4 296.7 L850.3 296.6 L858.2 296.5 L866.2 296.3 L874.1 296.2 L882.0 296.1 L889.9 296.0 L897.8 295.9 L905.8 295.8 L913.7 295.8 L921.6 295.8 L929.5 295.8 L937.4 295.8 L945.4 295.8 L953.3 295.8 L961.2 295.8 L969.1 295.8 L977.0 295.8 L985.0 295.8 L992.9 295.8 L1000.8 295.8 L1008.7 295.8 L1016.6 295.8 L1024.6 295.7 L1032.5 295.7 L1040.4 295.7 L1048.3 295.7 L1056.2 295.7 L1064.2 295.7 L1072.1 295.7 L1080.0 295.8" fill="none"/>
<path id="s2" d="M97.2 65.7 L105.4 65.8 L113.6 66.0 L121.8 66.1 L130.0 66.2 L138.2 66.3 L146.3 66.4 L154.5 66.5 L162.7 66.6 L170.9 66.7 L179.1 66.7 L187.3 66.8 L195.5 66.8 L203.7 67.0 L211.9 67.5 L220.1 68.2 L228.2 69.2 L236.4 70.4 L244.6 71.8 L252.8 73.5 L261.0 75.4 L269.2 77.4 L277.4 79.7 L285.6 82.2 L293.8 84.8 L302.0 87.7 L310.1 90.6 L318.3 93.8 L326.5 97.1 L334.7 100.5 L342.9 104.1 L351.1 107.8 L359.3 111.6 L367.5 115.5 L375.7 119.6 L383.9 123.7 L392.0 127.9 L400.2 132.2 L408.4 136.6 L416.6 141.0 L424.8 145.5 L433.0 150.0 L441.2 154.6 L449.4 159.1 L457.6 163.7 L465.8 168.4 L473.9 173.0 L482.1 177.6 L490.3 182.1 L498.5 186.7 L506.7 191.2 L514.9 195.6 L523.1 200.0 L531.3 204.3 L539.5 208.6 L547.6 212.8 L555.8 216.9 L564.0 220.9 L572.2 224.8 L580.4 228.6 L588.6 232.2 L596.8 235.7 L605.0 239.1 L613.2 242.4 L621.4 245.5 L629.5 248.4 L637.7 251.2 L645.9 253.7 L654.1 256.1 L662.3 258.3 L670.5 260.3 L678.7 262.1 L686.9 263.6 L695.1 265.0 L703.3 266.1 L711.4 266.9 L719.6 267.5 L727.8 267.8 L736.0 267.9 L744.2 267.8 L752.4 267.8 L760.6 267.8 L768.8 267.8 L777.0 267.7 L785.2 267.7 L793.4 267.7 L801.5 267.7 L809.7 267.7 L817.9 267.7 L826.1 267.7 L834.3 267.7 L842.5 267.7 L850.7 267.8 L858.9 267.8 L867.1 267.8 L875.3 267.8 L883.4 267.8 L891.6 267.8 L899.8 267.8 L908.0 267.8 L916.2 267.8 L924.4 267.8 L932.6 267.8 L940.8 267.8 L949.0 267.8 L957.1 267.8 L965.3 267.8 L973.5 267.9 L981.7 267.9 L989.9 268.0 L998.1 268.0 L1006.3 268.0 L1014.5 268.0 L1022.7 268.1 L1030.9 268.1 L1039.1 268.1 L1047.2 268.1 L1055.4 268.1 L1063.6 268.1 L1071.8 268.1 L1080.0 268.1" fill="none"/>
<path id="s3" d="M205.2 446.7 L212.5 446.4 L219.8 445.9 L227.1 445.3 L234.4 444.5 L241.7 443.6 L248.9 442.5 L256.2 441.4 L263.5 440.1 L270.8 438.7 L278.1 437.2 L285.4 435.6 L292.7 433.8 L300.0 432.0 L307.3 430.1 L314.6 428.2 L321.8 426.1 L329.1 424.0 L336.4 421.9 L343.7 419.6 L351.0 417.4 L358.3 415.0 L365.6 412.6 L372.9 410.1 L380.2 407.6 L387.4 405.0 L394.7 402.4 L402.0 399.7 L409.3 396.9 L416.6 394.1 L423.9 391.3 L431.2 388.4 L438.5 385.5 L445.8 382.5 L453.1 379.6 L460.4 376.6 L467.6 373.6 L474.9 370.6 L482.2 367.6 L489.5 364.7 L496.8 361.7 L504.1 358.8 L511.4 355.9 L518.7 353.1 L526.0 350.3 L533.3 347.5 L540.5 344.8 L547.8 342.2 L555.1 339.5 L562.4 337.0 L569.7 334.5 L577.0 332.1 L584.3 329.7 L591.6 327.4 L598.9 325.2 L606.1 323.1 L613.4 321.1 L620.7 319.1 L628.0 317.3 L635.3 315.5 L642.6 313.9 L649.9 312.3 L657.2 310.9 L664.5 309.6 L671.8 308.4 L679.0 307.4 L686.3 306.5 L693.6 305.7 L700.9 305.1 L708.2 304.6 L715.5 304.2 L722.8 304.0 L730.1 303.9 L737.4 304.0 L744.7 304.1 L752.0 304.2 L759.2 304.2 L766.5 304.3 L773.8 304.3 L781.1 304.3 L788.4 304.3 L795.7 304.3 L803.0 304.3 L810.3 304.3 L817.6 304.2 L824.9 304.2 L832.1 304.2 L839.4 304.1 L846.7 304.1 L854.0 304.0 L861.3 304.0 L868.6 304.0 L875.9 303.9 L883.2 303.9 L890.5 303.9 L897.8 303.8 L905.0 303.7 L912.3 303.7 L919.6 303.6 L926.9 303.5 L934.2 303.5 L941.5 303.4 L948.8 303.3 L956.1 303.2 L963.4 303.1 L970.6 303.1 L977.9 303.0 L985.2 303.0 L992.5 302.9 L999.8 302.9 L1007.1 302.9 L1014.4 302.9 L1021.7 302.9 L1029.0 302.9 L1036.3 302.9 L1043.5 303.0 L1050.8 303.0 L1058.1 303.1 L1065.4 303.1 L1072.7 303.2 L1080.0 303.2" fill="none"/>
<path id="s4" d="M172.8 103.8 L180.4 103.8 L187.9 103.8 L195.5 103.9 L203.0 104.0 L210.6 104.4 L218.2 104.9 L225.7 105.6 L233.3 106.5 L240.8 107.6 L248.4 108.8 L256.0 110.1 L263.5 111.6 L271.1 113.2 L278.6 114.9 L286.2 116.7 L293.8 118.7 L301.3 120.8 L308.9 123.0 L316.4 125.3 L324.0 127.7 L331.6 130.3 L339.1 132.9 L346.7 135.7 L354.2 138.5 L361.8 141.5 L369.4 144.5 L376.9 147.6 L384.5 150.8 L392.0 154.0 L399.6 157.3 L407.2 160.7 L414.7 164.1 L422.3 167.5 L429.8 170.9 L437.4 174.4 L445.0 177.9 L452.5 181.4 L460.1 184.9 L467.6 188.5 L475.2 192.0 L482.8 195.5 L490.3 199.0 L497.9 202.5 L505.4 206.0 L513.0 209.5 L520.6 213.0 L528.1 216.5 L535.7 219.9 L543.2 223.2 L550.8 226.5 L558.4 229.8 L565.9 232.9 L573.5 236.0 L581.0 239.0 L588.6 241.8 L596.2 244.6 L603.7 247.2 L611.3 249.7 L618.8 252.1 L626.4 254.4 L634.0 256.5 L641.5 258.5 L649.1 260.4 L656.6 262.1 L664.2 263.7 L671.8 265.2 L679.3 266.4 L686.9 267.6 L694.4 268.6 L702.0 269.4 L709.6 270.1 L717.1 270.6 L724.7 271.0 L732.2 271.1 L739.8 271.2 L747.4 271.2 L754.9 271.2 L762.5 271.3 L770.0 271.3 L777.6 271.3 L785.2 271.3 L792.7 271.4 L800.3 271.4 L807.8 271.4 L815.4 271.4 L823.0 271.4 L830.5 271.3 L838.1 271.3 L845.6 271.3 L853.2 271.3 L860.8 271.3 L868.3 271.3 L875.9 271.3 L883.4 271.2 L891.0 271.2 L898.6 271.2 L906.1 271.2 L913.7 271.2 L921.2 271.2 L928.8 271.1 L936.4 271.1 L943.9 271.1 L951.5 271.0 L959.0 271.0 L966.6 270.9 L974.2 270.8 L981.7 270.7 L989.3 270.6 L996.8 270.5 L1004.4 270.4 L1012.0 270.3 L1019.5 270.2 L1027.1 270.1 L1034.6 270.0 L1042.2 270.0 L1049.8 269.9 L1057.3 269.9 L1064.9 269.9 L1072.4 269.8 L1080.0 269.8" fill="none"/>
<path id="s5" d="M54.0 484.7 L62.6 484.7 L71.1 484.8 L79.7 484.9 L88.2 485.0 L96.8 485.1 L105.3 485.3 L113.8 485.4 L122.4 485.5 L130.9 485.6 L139.5 485.6 L148.1 485.7 L156.6 485.7 L165.2 485.7 L173.7 485.6 L182.3 485.6 L190.8 485.5 L199.3 485.4 L207.9 485.1 L216.4 484.4 L225.0 483.6 L233.6 482.5 L242.1 481.1 L250.7 479.5 L259.2 477.8 L267.8 475.8 L276.3 473.6 L284.8 471.3 L293.4 468.7 L302.0 466.0 L310.5 463.1 L319.1 460.0 L327.6 456.8 L336.1 453.4 L344.7 449.9 L353.3 446.3 L361.8 442.6 L370.3 438.8 L378.9 435.0 L387.4 431.0 L396.0 427.0 L404.6 423.0 L413.1 418.9 L421.6 414.8 L430.2 410.7 L438.7 406.5 L447.3 402.4 L455.8 398.2 L464.4 394.0 L472.9 389.8 L481.5 385.6 L490.1 381.5 L498.6 377.3 L507.1 373.1 L515.7 369.0 L524.2 364.9 L532.8 360.8 L541.4 356.8 L549.9 352.9 L558.5 349.0 L567.0 345.2 L575.5 341.6 L584.1 338.1 L592.6 334.7 L601.2 331.5 L609.8 328.4 L618.3 325.5 L626.9 322.8 L635.4 320.3 L643.9 317.9 L652.5 315.8 L661.0 313.8 L669.6 312.0 L678.1 310.5 L686.7 309.1 L695.3 307.9 L703.8 306.9 L712.4 306.2 L720.9 305.6 L729.5 305.3 L738.0 305.2 L746.6 305.2 L755.1 305.1 L763.6 305.1 L772.2 305.0 L780.8 304.9 L789.3 304.9 L797.9 304.8 L806.4 304.8 L815.0 304.7 L823.5 304.7 L832.0 304.7 L840.6 304.7 L849.1 304.6 L857.7 304.6 L866.2 304.6 L874.8 304.6 L883.4 304.6 L891.9 304.6 L900.5 304.6 L909.0 304.6 L917.6 304.6 L926.1 304.6 L934.6 304.6 L943.2 304.6 L951.8 304.6 L960.3 304.6 L968.9 304.6 L977.4 304.5 L986.0 304.5 L994.5 304.5 L1003.1 304.5 L1011.6 304.5 L1020.1 304.4 L1028.7 304.4 L1037.3 304.4 L1045.8 304.4 L1054.3 304.3 L1062.9 304.3 L1071.5 304.3 L1080.0 304.3" fill="none"/>
<path id="s6" d="M21.6 142.5 L30.4 142.6 L39.2 142.7 L48.1 142.8 L56.9 142.8 L65.7 142.9 L74.5 143.0 L83.3 143.0 L92.2 143.1 L101.0 143.1 L109.8 143.1 L118.6 143.2 L127.4 143.2 L136.3 143.3 L145.1 143.3 L153.9 143.4 L162.7 143.5 L171.5 143.5 L180.4 143.6 L189.2 143.7 L198.0 143.8 L206.8 144.1 L215.6 144.6 L224.5 145.2 L233.3 146.0 L242.1 146.9 L250.9 148.0 L259.7 149.3 L268.6 150.7 L277.4 152.2 L286.2 153.9 L295.0 155.7 L303.8 157.7 L312.7 159.8 L321.5 162.1 L330.3 164.5 L339.1 167.0 L347.9 169.7 L356.8 172.4 L365.6 175.2 L374.4 178.0 L383.2 181.0 L392.0 184.0 L400.9 187.0 L409.7 190.1 L418.5 193.3 L427.3 196.4 L436.1 199.6 L445.0 202.9 L453.8 206.1 L462.6 209.4 L471.4 212.6 L480.2 215.9 L489.1 219.1 L497.9 222.3 L506.7 225.5 L515.5 228.6 L524.3 231.7 L533.2 234.7 L542.0 237.7 L550.8 240.6 L559.6 243.4 L568.4 246.2 L577.3 248.8 L586.1 251.4 L594.9 253.9 L603.7 256.2 L612.5 258.5 L621.4 260.6 L630.2 262.6 L639.0 264.5 L647.8 266.2 L656.6 267.8 L665.5 269.2 L674.3 270.5 L683.1 271.6 L691.9 272.6 L700.7 273.4 L709.6 274.1 L718.4 274.5 L727.2 274.8 L736.0 274.8 L744.8 274.8 L753.7 274.8 L762.5 274.7 L771.3 274.7 L780.1 274.6 L788.9 274.5 L797.8 274.4 L806.6 274.3 L815.4 274.2 L824.2 274.1 L833.0 273.9 L841.9 273.8 L850.7 273.7 L859.5 273.6 L868.3 273.5 L877.1 273.4 L886.0 273.3 L894.8 273.2 L903.6 273.2 L912.4 273.1 L921.2 273.1 L930.1 273.1 L938.9 273.0 L947.7 273.0 L956.5 273.0 L965.3 273.0 L974.2 273.0 L983.0 273.1 L991.8 273.1 L1000.6 273.1 L1009.4 273.0 L1018.3 273.1 L1027.1 273.1 L1035.9 273.1 L1044.7 273.1 L1053.5 273.2 L1062.4 273.2 L1071.2 273.3 L1080.0 273.4" fill="none"/>
<path id="s7" d="M129.6 522.7 L137.5 522.7 L145.4 522.6 L153.4 522.6 L161.3 522.5 L169.2 522.5 L177.1 522.5 L185.0 522.4 L193.0 522.4 L200.9 522.3 L208.8 522.0 L216.7 521.4 L224.6 520.6 L232.6 519.5 L240.5 518.3 L248.4 516.8 L256.3 515.1 L264.2 513.2 L272.2 511.2 L280.1 508.9 L288.0 506.4 L295.9 503.8 L303.8 500.9 L311.8 497.9 L319.7 494.8 L327.6 491.4 L335.5 487.9 L343.4 484.3 L351.4 480.5 L359.3 476.6 L367.2 472.6 L375.1 468.5 L383.0 464.3 L391.0 460.0 L398.9 455.7 L406.8 451.3 L414.7 446.8 L422.6 442.2 L430.6 437.7 L438.5 433.0 L446.4 428.4 L454.3 423.7 L462.2 418.9 L470.2 414.2 L478.1 409.5 L486.0 404.8 L493.9 400.2 L501.8 395.5 L509.8 390.9 L517.7 386.4 L525.6 381.9 L533.5 377.5 L541.4 373.1 L549.4 368.8 L557.3 364.6 L565.2 360.5 L573.1 356.5 L581.0 352.6 L589.0 348.8 L596.9 345.1 L604.8 341.5 L612.7 338.0 L620.6 334.7 L628.6 331.5 L636.5 328.5 L644.4 325.6 L652.3 323.0 L660.2 320.5 L668.2 318.3 L676.1 316.3 L684.0 314.6 L691.9 313.1 L699.8 311.9 L707.8 311.0 L715.7 310.3 L723.6 309.8 L731.5 309.7 L739.4 309.8 L747.4 309.9 L755.3 310.0 L763.2 310.1 L771.1 310.1 L779.0 310.2 L787.0 310.2 L794.9 310.3 L802.8 310.3 L810.7 310.3 L818.6 310.3 L826.6 310.3 L834.5 310.3 L842.4 310.3 L850.3 310.3 L858.2 310.3 L866.2 310.3 L874.1 310.3 L882.0 310.2 L889.9 310.2 L897.8 310.2 L905.8 310.1 L913.7 310.1 L921.6 310.0 L929.5 310.0 L937.4 309.9 L945.4 309.8 L953.3 309.7 L961.2 309.7 L969.1 309.6 L977.0 309.5 L985.0 309.4 L992.9 309.3 L1000.8 309.3 L1008.7 309.2 L1016.6 309.1 L1024.6 309.1 L1032.5 309.1 L1040.4 309.0 L1048.3 309.0 L1056.2 308.9 L1064.2 308.9 L1072.1 308.9 L1080.0 308.8" fill="none"/>
<path id="s8" d="M97.2 185.1 L105.4 185.1 L113.6 185.2 L121.8 185.2 L130.0 185.2 L138.2 185.2 L146.3 185.2 L154.5 185.1 L162.7 185.1 L170.9 185.0 L179.1 185.0 L187.3 184.9 L195.5 184.8 L203.7 184.8 L211.9 184.9 L220.1 185.1 L228.2 185.5 L236.4 185.9 L244.6 186.5 L252.8 187.2 L261.0 188.1 L269.2 189.0 L277.4 190.1 L285.6 191.3 L293.8 192.6 L302.0 193.9 L310.1 195.4 L318.3 197.0 L326.5 198.6 L334.7 200.4 L342.9 202.1 L351.1 204.0 L359.3 205.8 L367.5 207.7 L375.7 209.7 L383.9 211.7 L392.0 213.7 L400.2 215.7 L408.4 217.7 L416.6 219.7 L424.8 221.7 L433.0 223.7 L441.2 225.8 L449.4 227.8 L457.6 229.9 L465.8 231.9 L473.9 234.0 L482.1 236.0 L490.3 238.1 L498.5 240.2 L506.7 242.2 L514.9 244.3 L523.1 246.3 L531.3 248.4 L539.5 250.4 L547.6 252.4 L555.8 254.3 L564.0 256.2 L572.2 258.0 L580.4 259.9 L588.6 261.6 L596.8 263.3 L605.0 264.9 L613.2 266.5 L621.4 268.0 L629.5 269.4 L637.7 270.8 L645.9 272.0 L654.1 273.2 L662.3 274.3 L670.5 275.3 L678.7 276.2 L686.9 277.0 L695.1 277.7 L703.3 278.2 L711.4 278.7 L719.6 279.0 L727.8 279.2 L736.0 279.3 L744.2 279.4 L752.4 279.5 L760.6 279.5 L768.8 279.6 L777.0 279.6 L785.2 279.7 L793.4 279.8 L801.5 279.8 L809.7 279.8 L817.9 279.9 L826.1 279.9 L834.3 280.0 L842.5 280.0 L850.7 280.0 L858.9 280.0 L867.1 280.0 L875.3 280.0 L883.4 280.0 L891.6 279.9 L899.8 279.9 L908.0 279.8 L916.2 279.8 L924.4 279.7 L932.6 279.6 L940.8 279.6 L949.0 279.5 L957.1 279.5 L965.3 279.4 L973.5 279.4 L981.7 279.3 L989.9 279.3 L998.1 279.2 L1006.3 279.2 L1014.5 279.1 L1022.7 279.1 L1030.9 279.1 L1039.1 279.0 L1047.2 279.0 L1055.4 278.9 L1063.6 278.9 L1071.8 278.9 L1080.0 278.8" fill="none"/>
<path id="s9" d="M205.2 558.0 L212.5 557.5 L219.8 556.7 L227.1 555.8 L234.4 554.5 L241.7 553.1 L248.9 551.4 L256.2 549.5 L263.5 547.4 L270.8 545.1 L278.1 542.5 L285.4 539.8 L292.7 537.0 L300.0 533.9 L307.3 530.6 L314.6 527.2 L321.8 523.7 L329.1 519.9 L336.4 516.0 L343.7 512.0 L351.0 507.9 L358.3 503.6 L365.6 499.2 L372.9 494.8 L380.2 490.2 L387.4 485.6 L394.7 480.9 L402.0 476.1 L409.3 471.3 L416.6 466.5 L423.9 461.6 L431.2 456.7 L438.5 451.8 L445.8 446.9 L453.1 442.0 L460.4 437.0 L467.6 432.1 L474.9 427.2 L482.2 422.4 L489.5 417.5 L496.8 412.7 L504.1 407.9 L511.4 403.2 L518.7 398.5 L526.0 393.8 L533.3 389.2 L540.5 384.7 L547.8 380.2 L555.1 375.8 L562.4 371.5 L569.7 367.2 L577.0 363.1 L584.3 359.1 L591.6 355.1 L598.9 351.4 L606.1 347.7 L613.4 344.2 L620.7 340.8 L628.0 337.6 L635.3 334.6 L642.6 331.7 L649.9 329.1 L657.2 326.6 L664.5 324.3 L671.8 322.2 L679.0 320.4 L686.3 318.7 L693.6 317.3 L700.9 316.0 L708.2 315.0 L715.5 314.3 L722.8 313.7 L730.1 313.4 L737.4 313.4 L744.7 313.3 L752.0 313.3 L759.2 313.2 L766.5 313.1 L773.8 313.0 L781.1 312.9 L788.4 312.7 L795.7 312.6 L803.0 312.4 L810.3 312.2 L817.6 312.1 L824.9 311.9 L832.1 311.7 L839.4 311.5 L846.7 311.4 L854.0 311.2 L861.3 311.1 L868.6 311.0 L875.9 310.9 L883.2 310.8 L890.5 310.8 L897.8 310.8 L905.0 310.8 L912.3 310.8 L919.6 310.8 L926.9 310.8 L934.2 310.9 L941.5 310.9 L948.8 311.0 L956.1 311.1 L963.4 311.2 L970.6 311.3 L977.9 311.3 L985.2 311.4 L992.5 311.5 L999.8 311.6 L1007.1 311.7 L1014.4 311.8 L1021.7 311.8 L1029.0 311.9 L1036.3 312.0 L1043.5 312.0 L1050.8 312.1 L1058.1 312.2 L1065.4 312.2 L1072.7 312.3 L1080.0 312.4" fill="none"/>
<path id="s10" d="M172.8 225.8 L180.4 225.8 L187.9 225.8 L195.5 225.9 L203.0 225.9 L210.6 226.0 L218.2 226.2 L225.7 226.4 L233.3 226.7 L240.8 227.1 L248.4 227.5 L256.0 227.9 L263.5 228.4 L271.1 229.0 L278.6 229.6 L286.2 230.2 L293.8 230.9 L301.3 231.6 L308.9 232.4 L316.4 233.2 L324.0 234.1 L331.6 234.9 L339.1 235.8 L346.7 236.7 L354.2 237.6 L361.8 238.6 L369.4 239.6 L376.9 240.7 L384.5 241.7 L392.0 242.9 L399.6 244.0 L407.2 245.1 L414.7 246.3 L422.3 247.4 L429.8 248.6 L437.4 249.7 L445.0 250.9 L452.5 252.0 L460.1 253.1 L467.6 254.2 L475.2 255.3 L482.8 256.3 L490.3 257.3 L497.9 258.3 L505.4 259.3 L513.0 260.3 L520.6 261.3 L528.1 262.2 L535.7 263.1 L543.2 264.1 L550.8 265.0 L558.4 266.0 L565.9 266.9 L573.5 267.9 L581.0 268.8 L588.6 269.8 L596.2 270.7 L603.7 271.6 L611.3 272.4 L618.8 273.3 L626.4 274.1 L634.0 274.9 L641.5 275.6 L649.1 276.3 L656.6 277.0 L664.2 277.6 L671.8 278.2 L679.3 278.7 L686.9 279.1 L694.4 279.5 L702.0 279.9 L709.6 280.1 L717.1 280.4 L724.7 280.6 L732.2 280.7 L739.8 280.7 L747.4 280.8 L754.9 280.9 L762.5 280.9 L770.0 281.0 L777.6 281.0 L785.2 281.0 L792.7 281.0 L800.3 281.1 L807.8 281.1 L815.4 281.1 L823.0 281.1 L830.5 281.1 L838.1 281.1 L845.6 281.1 L853.2 281.1 L860.8 281.1 L868.3 281.1 L875.9 281.1 L883.4 281.1 L891.0 281.2 L898.6 281.2 L906.1 281.2 L913.7 281.2 L921.2 281.2 L928.8 281.2 L936.4 281.1 L943.9 281.1 L951.5 281.0 L959.0 281.0 L966.6 280.9 L974.2 280.8 L981.7 280.8 L989.3 280.7 L996.8 280.6 L1004.4 280.6 L1012.0 280.6 L1019.5 280.5 L1027.1 280.5 L1034.6 280.6 L1042.2 280.6 L1049.8 280.6 L1057.3 280.7 L1064.9 280.7 L1072.4 280.8 L1080.0 280.8" fill="none"/>
<path id="s11" d="M54.0 594.7 L62.6 594.7 L71.1 594.6 L79.7 594.6 L88.2 594.6 L96.8 594.6 L105.3 594.6 L113.8 594.6 L122.4 594.6 L130.9 594.6 L139.5 594.6 L148.1 594.7 L156.6 594.7 L165.2 594.7 L173.7 594.8 L182.3 594.8 L190.8 594.8 L199.3 594.8 L207.9 594.4 L216.4 593.6 L225.0 592.5 L233.6 590.9 L242.1 589.0 L250.7 586.8 L259.2 584.2 L267.8 581.4 L276.3 578.2 L284.8 574.7 L293.4 570.9 L302.0 566.8 L310.5 562.5 L319.1 557.9 L327.6 553.1 L336.1 548.0 L344.7 542.8 L353.3 537.3 L361.8 531.7 L370.3 525.9 L378.9 520.0 L387.4 514.0 L396.0 507.9 L404.6 501.6 L413.1 495.2 L421.6 488.8 L430.2 482.3 L438.7 475.8 L447.3 469.2 L455.8 462.5 L464.4 455.9 L472.9 449.3 L481.5 442.6 L490.1 436.0 L498.6 429.5 L507.1 423.0 L515.7 416.6 L524.2 410.3 L532.8 404.1 L541.4 398.0 L549.9 392.1 L558.5 386.3 L567.0 380.6 L575.5 375.1 L584.1 369.8 L592.6 364.6 L601.2 359.7 L609.8 354.9 L618.3 350.3 L626.9 346.0 L635.4 341.8 L643.9 338.0 L652.5 334.4 L661.0 331.0 L669.6 328.0 L678.1 325.3 L686.7 322.9 L695.3 320.9 L703.8 319.3 L712.4 318.0 L720.9 317.1 L729.5 316.7 L738.0 316.6 L746.6 316.7 L755.1 316.7 L763.6 316.8 L772.2 316.8 L780.8 316.9 L789.3 316.9 L797.9 317.0 L806.4 317.0 L815.0 317.0 L823.5 317.0 L832.0 317.0 L840.6 316.9 L849.1 316.8 L857.7 316.7 L866.2 316.6 L874.8 316.5 L883.4 316.3 L891.9 316.1 L900.5 316.0 L909.0 315.8 L917.6 315.6 L926.1 315.5 L934.6 315.3 L943.2 315.2 L951.8 315.1 L960.3 315.0 L968.9 314.8 L977.4 314.7 L986.0 314.6 L994.5 314.5 L1003.1 314.4 L1011.6 314.3 L1020.1 314.2 L1028.7 314.1 L1037.3 314.0 L1045.8 313.9 L1054.3 313.8 L1062.9 313.8 L1071.5 313.7 L1080.0 313.7" fill="none"/>
<linearGradient id="fade" x1="0" y1="0" x2="1" y2="0">
<stop offset="0" stop-color="#fff" stop-opacity="0"/><stop offset="0.15" stop-color="#fff" stop-opacity="1"/>
<stop offset="0.78" stop-color="#fff" stop-opacity="1"/><stop offset="1" stop-color="#fff" stop-opacity="0"/>
</linearGradient><mask id="m2"><rect width="1080" height="640" fill="url(#fade)"/></mask></defs>
<g mask="url(#m2)"><text font-family="ui-monospace,Menlo,monospace" font-size="7.5" fill="#51678a" letter-spacing="0.5"><textPath href="#s0">i'm building across boundaries · i'm building across boundaries · i'm building across boundaries · i'm building across boundaries · i'm building across boundaries · i'm building across boundaries · i'm building across boundaries · i'm building across boundaries · i'm building across boundaries · i'm building across boundaries · </textPath></text>
<text font-family="ui-monospace,Menlo,monospace" font-size="7.5" fill="#51678a" letter-spacing="0.5"><textPath href="#s1">'m building across boundaries · i'm building across boundaries · 'm building across boundaries · i'm building across boundaries · 'm building across boundaries · i'm building across boundaries · 'm building across boundaries · i'm building across boundaries · 'm building across boundaries · i'm building across boundaries · 'm bu</textPath></text>
<text font-family="ui-monospace,Menlo,monospace" font-size="7.5" fill="#51678a" letter-spacing="0.5"><textPath href="#s2">m building across boundaries · i'm building across boundaries · m building across boundaries · i'm building across boundaries · m building across boundaries · i'm building across boundaries · m building across boundaries · i'm building across boundaries · m building across boundaries · i'm building across boundaries · m building</textPath></text>
<text font-family="ui-monospace,Menlo,monospace" font-size="7.5" fill="#51678a" letter-spacing="0.5"><textPath href="#s3"> building across boundaries · i'm building across boundaries ·  building across boundaries · i'm building across boundaries ·  building across boundaries · i'm building across boundaries ·  building across boundaries · i'm building across boundaries ·  building across boundaries · i'm building across boundaries ·  building acros</textPath></text>
<text font-family="ui-monospace,Menlo,monospace" font-size="7.5" fill="#51678a" letter-spacing="0.5"><textPath href="#s4">building across boundaries · i'm building across boundaries · building across boundaries · i'm building across boundaries · building across boundaries · i'm building across boundaries · building across boundaries · i'm building across boundaries · building across boundaries · i'm building across boundaries · building across boun</textPath></text>
<text font-family="ui-monospace,Menlo,monospace" font-size="7.5" fill="#51678a" letter-spacing="0.5"><textPath href="#s5">uilding across boundaries · i'm building across boundaries · uilding across boundaries · i'm building across boundaries · uilding across boundaries · i'm building across boundaries · uilding across boundaries · i'm building across boundaries · uilding across boundaries · i'm building across boundaries · uilding across boundaries</textPath></text>
<text font-family="ui-monospace,Menlo,monospace" font-size="7.5" fill="#51678a" letter-spacing="0.5"><textPath href="#s6">ilding across boundaries · i'm building across boundaries · ilding across boundaries · i'm building across boundaries · ilding across boundaries · i'm building across boundaries · ilding across boundaries · i'm building across boundaries · ilding across boundaries · i'm building across boundaries · ilding across boundaries · i'm</textPath></text>
<text font-family="ui-monospace,Menlo,monospace" font-size="7.5" fill="#51678a" letter-spacing="0.5"><textPath href="#s7">lding across boundaries · i'm building across boundaries · lding across boundaries · i'm building across boundaries · lding across boundaries · i'm building across boundaries · lding across boundaries · i'm building across boundaries · lding across boundaries · i'm building across boundaries · lding across boundaries · i'm build</textPath></text>
<text font-family="ui-monospace,Menlo,monospace" font-size="7.5" fill="#51678a" letter-spacing="0.5"><textPath href="#s8">ding across boundaries · i'm building across boundaries · ding across boundaries · i'm building across boundaries · ding across boundaries · i'm building across boundaries · ding across boundaries · i'm building across boundaries · ding across boundaries · i'm building across boundaries · ding across boundaries · i'm building ac</textPath></text>
<text font-family="ui-monospace,Menlo,monospace" font-size="7.5" fill="#51678a" letter-spacing="0.5"><textPath href="#s9">ing across boundaries · i'm building across boundaries · ing across boundaries · i'm building across boundaries · ing across boundaries · i'm building across boundaries · ing across boundaries · i'm building across boundaries · ing across boundaries · i'm building across boundaries · ing across boundaries · i'm building across b</textPath></text>
<text font-family="ui-monospace,Menlo,monospace" font-size="7.5" fill="#51678a" letter-spacing="0.5"><textPath href="#s10">ng across boundaries · i'm building across boundaries · ng across boundaries · i'm building across boundaries · ng across boundaries · i'm building across boundaries · ng across boundaries · i'm building across boundaries · ng across boundaries · i'm building across boundaries · ng across boundaries · i'm building across boundar</textPath></text>
<text font-family="ui-monospace,Menlo,monospace" font-size="7.5" fill="#51678a" letter-spacing="0.5"><textPath href="#s11">g across boundaries · i'm building across boundaries · g across boundaries · i'm building across boundaries · g across boundaries · i'm building across boundaries · g across boundaries · i'm building across boundaries · g across boundaries · i'm building across boundaries · g across boundaries · i'm building across boundaries · </textPath></text>
</g></svg>