<svg xmlns="http://www.w3.org/2000/svg" viewBox="0 0 1080 640">
<defs><path id="s0" d="M21.6 20.6 L30.4 20.6 L39.2 20.7 L48.1 20.8 L56.9 20.9 L65.7 21.1 L74.5 21.2 L83.3 21.3 L92.2 21.4 L101.0 21.6 L109.8 21.7 L118.6 21.8 L127.4 21.9 L136.3 22.0 L145.1 22.2 L153.9 22.3 L162.7 22.5 L171.5 22.7 L180.4 22.9 L189.2 23.0 L198.0 23.2 L206.8 23.8 L215.6 25.0 L224.5 26.5 L233.3 28.6 L242.1 31.1 L250.9 34.0 L259.7 37.4 L268.6 41.2 L277.4 45.4 L286.2 50.0 L295.0 54.9 L303.8 60.2 L312.7 65.8 L321.5 71.7 L330.3 77.9 L339.1 84.4 L347.9 91.2 L356.8 98.2 L365.6 105.4 L374.4 112.8 L383.2 120.3 L392.0 128.1 L400.9 136.0 L409.7 144.0 L418.5 152.1 L427.3 160.3 L436.1 168.5 L445.0 176.8 L453.8 185.1 L462.6 193.4 L471.4 201.6 L480.2 209.8 L489.1 218.0 L497.9 226.1 L506.7 234.2 L515.5 242.2 L524.3 250.0 L533.2 257.8 L542.0 265.4 L550.8 272.9 L559.6 280.2 L568.4 287.4 L577.3 294.3 L586.1 301.1 L594.9 307.6 L603.7 313.8 L612.5 319.8 L621.4 325.5 L630.2 330.9 L639.0 335.9 L647.8 340.6 L656.6 344.9 L665.5 348.9 L674.3 352.4 L683.1 355.5 L691.9 358.2 L700.7 360.5 L709.6 362.2 L718.4 363.5 L727.2 364.2 L736.0 364.5 L744.8 364.5 L753.7 364.6 L762.5 364.6 L771.3 364.7 L780.1 364.8 L788.9 364.9 L797.8 365.0 L806.6 365.1 L815.4 365.2 L824.2 365.2 L833.0 365.3 L841.9 365.4 L850.7 365.4 L859.5 365.5 L868.3 365.5 L877.1 365.6 L886.0 365.6 L894.8 365.6 L903.6 365.7 L912.4 365.7 L921.2 365.8 L930.1 365.8 L938.9 365.8 L947.7 365.9 L956.5 365.9 L965.3 365.8 L974.2 365.8 L983.0 365.8 L991.8 365.8 L1000.6 365.7 L1009.4 365.7 L1018.3 365.6 L1027.1 365.5 L1035.9 365.5 L1044.7 365.4 L1053.5 365.3 L1062.4 365.2 L1071.2 365.1 L1080.0 365.0" fill="none"/>
<path id="s1" d="M129.6 408.1 L137.5 408.1 L145.4 408.0 L153.4 408.0 L161.3 407.9 L169.2 407.9 L177.1 407.8 L185.0 407.7 L193.0 407.7 L200.9 407.6 L208.8 407.6 L216.7 407.5 L224.6 407.4 L232.6 407.3 L240.5 407.2 L248.4 407.1 L256.3 407.0 L264.2 407.0 L272.2 406.9 L280.1 406.8 L288.0 406.8 L295.9 406.7 L303.8 406.6 L311.8 406.5 L319.7 406.4 L327.6 406.2 L335.5 406.0 L343.4 405.8 L351.4 405.6 L359.3 405.3 L367.2 405.0 L375.1 404.7 L383.0 404.4 L391.0 404.0 L398.9 403.6 L406.8 403.3 L414.7 402.9 L422.6 402.5 L430.6 402.2 L438.5 401.9 L446.4 401.5 L454.3 401.3 L462.2 401.0 L470.2 400.7 L478.1 400.5 L486.0 400.2 L493.9 400.0 L501.8 399.8 L509.8 399.6 L517.7 399.4 L525.6 399.2 L533.5 399.0 L541.4 398.9 L549.4 398.7 L557.3 398.5 L565.2 398.4 L573.1 398.2 L581.0 398.1 L589.0 397.9 L596.9 397.8 L604.8 397.6 L612.7 397.5 L620.6 397.4 L628.6 397.2 L636.5 397.1 L644.4 397.0 L652.3 396.9 L660.2 396.8 L668.2 396.7 L676.1 396.6 L684.0 396.5 L691.9 396.4 L699.8 396.4 L707.8 396.4 L715.7 396.4 L723.6 396.4 L731.5 396.4 L739.4 396.4 L747.4 396.5 L755.3 396.5 L763.2 396.5 L771.1 396.5 L779.0 396.5 L787.0 396.5 L794.9 396.4 L802.8 396.3 L810.7 396.2 L818.6 396.1 L826.6 396.0 L834.5 395.9 L842.4 395.7 L850.3 395.6 L858.2 395.5 L866.2 395.3 L874.1 395.2 L882.0 395.1 L889.9 395.0 L897.8 394.9 L905.8 394.9 L913.7 394.8 L921.6 394.8 L929.5 394.8 L937.4 394.8 L945.4 394.8 L953.3 394.8 L961.2 394.8 L969.1 394.8 L977.0 394.8 L985.0 394.8 L992.9 394.8 L1000.8 394.8 L1008.7 394.8 L1016.6 394.8 L1024.6 394.7 L1032.5 394.7 L1040.4 394.7 L1048.3 394.7 L1056.2 394.7 L1064.2 394.7 L1072.1 394.7 L1080.0 394.8" fill="none"/>
<path id="s2" d="M97.2 65.7 L105.4 65.8 L113.6 66.0 L121.8 66.1 L130.0 66.2 L138.2 66.3 L146.3 66.4 L154.5 66.5 L162.7 66.6 L170.9 66.7 L179.1 66.7 L187.3 66.8 L195.5 66.8 L203.7 67.1 L211.9 67.8 L220.1 68.9 L228.2 70.3 L236.4 72.1 L244.6 74.2 L252.8 76.7 L261.0 79.5 L269.2 82.6 L277.4 86.0 L285.6 89.7 L293.8 93.6 L302.0 97.9 L310.1 102.3 L318.3 107.0 L326.5 112.0 L334.7 117.1 L342.9 122.4 L351.1 128.0 L359.3 133.7 L367.5 139.5 L375.7 145.5 L383.9 151.7 L392.0 158.0 L400.2 164.4 L408.4 170.9 L416.6 177.5 L424.8 184.2 L433.0 190.9 L441.2 197.7 L449.4 204.5 L457.6 211.4 L465.8 218.2 L473.9 225.1 L482.1 231.9 L490.3 238.7 L498.5 245.5 L506.7 252.2 L514.9 258.9 L523.1 265.4 L531.3 271.9 L539.5 278.2 L547.6 284.5 L555.8 290.6 L564.0 296.5 L572.2 302.4 L580.4 308.0 L588.6 313.5 L596.8 318.7 L605.0 323.8 L613.2 328.7 L621.4 333.3 L629.5 337.7 L637.7 341.8 L645.9 345.6 L654.1 349.2 L662.3 352.5 L670.5 355.5 L678.7 358.1 L686.9 360.5 L695.1 362.5 L703.3 364.1 L711.4 365.4 L719.6 366.3 L727.8 366.8 L736.0 366.9 L744.2 366.9 L752.4 366.8 L760.6 366.8 L768.8 366.8 L777.0 366.8 L785.2 366.7 L793.4 366.7 L801.5 366.7 L809.7 366.7 L817.9 366.7 L826.1 366.7 L834.3 366.7 L842.5 366.8 L850.7 366.8 L858.9 366.8 L867.1 366.8 L875.3 366.8 L883.4 366.8 L891.6 366.8 L899.8 366.8 L908.0 366.8 L916.2 366.8 L924.4 366.8 L932.6 366.8 L940.8 366.8 L949.0 366.8 L957.1 366.8 L965.3 366.8 L973.5 366.9 L981.7 366.9 L989.9 367.0 L998.1 367.0 L1006.3 367.0 L1014.5 367.1 L1022.7 367.1 L1030.9 367.1 L1039.1 367.1 L1047.2 367.1 L1055.4 367.1 L1063.6 367.1 L1071.8 367.1 L1080.0 367.1" fill="none"/>
<path id="s3" d="M205.2 446.9 L212.5 446.7 L219.8 446.5 L227.1 446.3 L234.4 446.0 L241.7 445.7 L248.9 445.4 L256.2 445.0 L263.5 444.5 L270.8 444.1 L278.1 443.6 L285.4 443.0 L292.7 442.5 L300.0 441.9 L307.3 441.3 L314.6 440.7 L321.8 440.1 L329.1 439.4 L336.4 438.8 L343.7 438.2 L351.0 437.5 L358.3 436.8 L365.6 436.2 L372.9 435.4 L380.2 434.7 L387.4 433.9 L394.7 433.2 L402.0 432.3 L409.3 431.5 L416.6 430.6 L423.9 429.7 L431.2 428.8 L438.5 427.9 L445.8 426.9 L453.1 425.9 L460.4 425.0 L467.6 424.0 L474.9 423.0 L482.2 422.0 L489.5 421.1 L496.8 420.1 L504.1 419.2 L511.4 418.2 L518.7 417.3 L526.0 416.4 L533.3 415.6 L540.5 414.7 L547.8 413.9 L555.1 413.1 L562.4 412.3 L569.7 411.5 L577.0 410.7 L584.3 410.0 L591.6 409.3 L598.9 408.6 L606.1 408.0 L613.4 407.4 L620.7 406.8 L628.0 406.3 L635.3 405.8 L642.6 405.3 L649.9 404.8 L657.2 404.4 L664.5 404.1 L671.8 403.8 L679.0 403.5 L686.3 403.3 L693.6 403.1 L700.9 403.0 L708.2 402.9 L715.5 402.9 L722.8 402.9 L730.1 402.9 L737.4 403.0 L744.7 403.1 L752.0 403.2 L759.2 403.2 L766.5 403.3 L773.8 403.3 L781.1 403.3 L788.4 403.3 L795.7 403.3 L803.0 403.3 L810.3 403.3 L817.6 403.2 L824.9 403.2 L832.1 403.2 L839.4 403.1 L846.7 403.1 L854.0 403.0 L861.3 403.0 L868.6 403.0 L875.9 402.9 L883.2 402.9 L890.5 402.9 L897.8 402.8 L905.0 402.8 L912.3 402.7 L919.6 402.6 L926.9 402.5 L934.2 402.5 L941.5 402.4 L948.8 402.3 L956.1 402.2 L963.4 402.2 L970.6 402.1 L977.9 402.0 L985.2 402.0 L992.5 401.9 L999.8 401.9 L1007.1 401.9 L1014.4 401.9 L1021.7 401.9 L1029.0 401.9 L1036.3 402.0 L1043.5 402.0 L1050.8 402.0 L1058.1 402.1 L1065.4 402.1 L1072.7 402.2 L1080.0 402.2" fill="none"/>
<path id="s4" d="M172.8 103.8 L180.4 103.8 L187.9 103.8 L195.5 103.9 L203.0 104.1 L210.6 104.7 L218.2 105.5 L225.7 106.6 L233.3 108.0 L240.8 109.6 L248.4 111.5 L256.0 113.7 L263.5 116.0 L271.1 118.6 L278.6 121.4 L286.2 124.3 L293.8 127.5 L301.3 130.9 L308.9 134.5 L316.4 138.2 L324.0 142.1 L331.6 146.2 L339.1 150.4 L346.7 154.8 L354.2 159.4 L361.8 164.1 L369.4 168.9 L376.9 173.9 L384.5 179.0 L392.0 184.1 L399.6 189.4 L407.2 194.7 L414.7 200.1 L422.3 205.5 L429.8 211.0 L437.4 216.5 L445.0 222.1 L452.5 227.7 L460.1 233.3 L467.6 238.9 L475.2 244.4 L482.8 250.0 L490.3 255.6 L497.9 261.2 L505.4 266.7 L513.0 272.3 L520.6 277.7 L528.1 283.2 L535.7 288.5 L543.2 293.8 L550.8 299.0 L558.4 304.1 L565.9 309.0 L573.5 313.9 L581.0 318.5 L588.6 323.1 L596.2 327.4 L603.7 331.6 L611.3 335.6 L618.8 339.5 L626.4 343.1 L634.0 346.5 L641.5 349.8 L649.1 352.8 L656.6 355.6 L664.2 358.1 L671.8 360.5 L679.3 362.6 L686.9 364.4 L694.4 366.1 L702.0 367.4 L709.6 368.5 L717.1 369.3 L724.7 369.9 L732.2 370.1 L739.8 370.2 L747.4 370.2 L754.9 370.2 L762.5 370.3 L770.0 370.3 L777.6 370.3 L785.2 370.3 L792.7 370.4 L800.3 370.4 L807.8 370.4 L815.4 370.4 L823.0 370.4 L830.5 370.4 L838.1 370.3 L845.6 370.3 L853.2 370.3 L860.8 370.3 L868.3 370.3 L875.9 370.3 L883.4 370.2 L891.0 370.2 L898.6 370.2 L906.1 370.2 L913.7 370.2 L921.2 370.2 L928.8 370.1 L936.4 370.1 L943.9 370.1 L951.5 370.0 L959.0 370.0 L966.6 369.9 L974.2 369.8 L981.7 369.7 L989.3 369.6 L996.8 369.5 L1004.4 369.4 L1012.0 369.3 L1019.5 369.2 L1027.1 369.1 L1034.6 369.1 L1042.2 369.0 L1049.8 368.9 L1057.3 368.9 L1064.9 368.9 L1072.4 368.8 L1080.0 368.8" fill="none"/>
<path id="s5" d="M54.0 484.7 L62.6 484.7 L71.1 484.8 L79.7 484.9 L88.2 485.0 L96.8 485.1 L105.3 485.3 L113.8 485.4 L122.4 485.5 L130.9 485.6 L139.5 485.6 L148.1 485.7 L156.6 485.7 L165.2 485.7 L173.7 485.6 L182.3 485.6 L190.8 485.5 L199.3 485.4 L207.9 485.2 L216.4 484.9 L225.0 484.5 L233.6 483.9 L242.1 483.3 L250.7 482.5 L259.2 481.7 L267.8 480.8 L276.3 479.8 L284.8 478.7 L293.4 477.5 L302.0 476.2 L310.5 474.8 L319.1 473.4 L327.6 471.9 L336.1 470.3 L344.7 468.7 L353.3 467.0 L361.8 465.3 L370.3 463.5 L378.9 461.7 L387.4 459.9 L396.0 458.1 L404.6 456.3 L413.1 454.5 L421.6 452.7 L430.2 450.8 L438.7 449.0 L447.3 447.2 L455.8 445.3 L464.4 443.5 L472.9 441.7 L481.5 439.8 L490.1 438.0 L498.6 436.1 L507.1 434.3 L515.7 432.4 L524.2 430.6 L532.8 428.7 L541.4 426.9 L549.9 425.1 L558.5 423.3 L567.0 421.6 L575.5 419.9 L584.1 418.3 L592.6 416.8 L601.2 415.4 L609.8 414.0 L618.3 412.7 L626.9 411.6 L635.4 410.5 L643.9 409.5 L652.5 408.6 L661.0 407.8 L669.6 407.1 L678.1 406.5 L686.7 405.9 L695.3 405.4 L703.8 405.0 L712.4 404.7 L720.9 404.5 L729.5 404.3 L738.0 404.2 L746.6 404.2 L755.1 404.1 L763.6 404.1 L772.2 404.0 L780.8 404.0 L789.3 403.9 L797.9 403.8 L806.4 403.8 L815.0 403.7 L823.5 403.7 L832.0 403.7 L840.6 403.7 L849.1 403.6 L857.7 403.6 L866.2 403.6 L874.8 403.6 L883.4 403.6 L891.9 403.6 L900.5 403.6 L909.0 403.6 L917.6 403.6 L926.1 403.6 L934.6 403.6 L943.2 403.6 L951.8 403.6 L960.3 403.6 L968.9 403.6 L977.4 403.5 L986.0 403.5 L994.5 403.5 L1003.1 403.5 L1011.6 403.5 L1020.1 403.4 L1028.7 403.4 L1037.3 403.4 L1045.8 403.4 L1054.3 403.3 L1062.9 403.3 L1071.5 403.3 L1080.0 403.3" fill="none"/>
<path id="s6" d="M21.6 142.5 L30.4 142.6 L39.2 142.7 L48.1 142.8 L56.9 142.8 L65.7 142.9 L74.5 143.0 L83.3 143.0 L92.2 143.1 L101.0 143.1 L109.8 143.1 L118.6 143.2 L127.4 143.2 L136.3 143.3 L145.1 143.3 L153.9 143.4 L162.7 143.5 L171.5 143.5 L180.4 143.6 L189.2 143.7 L198.0 143.8 L206.8 144.3 L215.6 145.0 L224.5 146.1 L233.3 147.5 L242.1 149.1 L250.9 151.1 L259.7 153.3 L268.6 155.8 L277.4 158.5 L286.2 161.5 L295.0 164.8 L303.8 168.3 L312.7 172.0 L321.5 176.0 L330.3 180.2 L339.1 184.6 L347.9 189.1 L356.8 193.8 L365.6 198.7 L374.4 203.7 L383.2 208.8 L392.0 214.1 L400.9 219.4 L409.7 224.8 L418.5 230.3 L427.3 235.8 L436.1 241.4 L445.0 247.0 L453.8 252.7 L462.6 258.4 L471.4 264.0 L480.2 269.7 L489.1 275.4 L497.9 281.0 L506.7 286.5 L515.5 292.0 L524.3 297.4 L533.2 302.7 L542.0 307.9 L550.8 313.0 L559.6 318.0 L568.4 322.9 L577.3 327.6 L586.1 332.1 L594.9 336.5 L603.7 340.6 L612.5 344.6 L621.4 348.4 L630.2 352.0 L639.0 355.3 L647.8 358.4 L656.6 361.2 L665.5 363.8 L674.3 366.1 L683.1 368.1 L691.9 369.9 L700.7 371.3 L709.6 372.5 L718.4 373.3 L727.2 373.7 L736.0 373.8 L744.8 373.8 L753.7 373.8 L762.5 373.7 L771.3 373.7 L780.1 373.6 L788.9 373.5 L797.8 373.4 L806.6 373.3 L815.4 373.2 L824.2 373.1 L833.0 372.9 L841.9 372.8 L850.7 372.7 L859.5 372.6 L868.3 372.5 L877.1 372.4 L886.0 372.3 L894.8 372.2 L903.6 372.2 L912.4 372.1 L921.2 372.1 L930.1 372.1 L938.9 372.1 L947.7 372.0 L956.5 372.0 L965.3 372.0 L974.2 372.1 L983.0 372.1 L991.8 372.1 L1000.6 372.1 L1009.4 372.1 L1018.3 372.1 L1027.1 372.1 L1035.9 372.1 L1044.7 372.1 L1053.5 372.2 L1062.4 372.3 L1071.2 372.3 L1080.0 372.4" fill="none"/>
<path id="s7" d="M129.6 522.7 L137.5 522.7 L145.4 522.6 L153.4 522.6 L161.3 522.5 L169.2 522.5 L177.1 522.5 L185.0 522.4 L193.0 522.4 L200.9 522.3 L208.8 522.2 L216.7 521.9 L224.6 521.4 L232.6 520.9 L240.5 520.3 L248.4 519.6 L256.3 518.7 L264.2 517.8 L272.2 516.7 L280.1 515.6 L288.0 514.3 L295.9 512.9 L303.8 511.5 L311.8 509.9 L319.7 508.3 L327.6 506.5 L335.5 504.7 L343.4 502.7 L351.4 500.7 L359.3 498.6 L367.2 496.5 L375.1 494.3 L383.0 492.1 L391.0 489.8 L398.9 487.5 L406.8 485.2 L414.7 482.8 L422.6 480.4 L430.6 477.9 L438.5 475.4 L446.4 472.9 L454.3 470.4 L462.2 467.9 L470.2 465.3 L478.1 462.8 L486.0 460.3 L493.9 457.7 L501.8 455.3 L509.8 452.8 L517.7 450.3 L525.6 447.9 L533.5 445.6 L541.4 443.2 L549.4 440.9 L557.3 438.7 L565.2 436.5 L573.1 434.3 L581.0 432.2 L589.0 430.1 L596.9 428.1 L604.8 426.1 L612.7 424.2 L620.6 422.3 L628.6 420.6 L636.5 418.9 L644.4 417.3 L652.3 415.8 L660.2 414.5 L668.2 413.2 L676.1 412.1 L684.0 411.2 L691.9 410.4 L699.8 409.8 L707.8 409.3 L715.7 408.9 L723.6 408.7 L731.5 408.7 L739.4 408.8 L747.4 408.9 L755.3 409.0 L763.2 409.1 L771.1 409.1 L779.0 409.2 L787.0 409.3 L794.9 409.3 L802.8 409.3 L810.7 409.3 L818.6 409.3 L826.6 409.3 L834.5 409.3 L842.4 409.3 L850.3 409.3 L858.2 409.3 L866.2 409.3 L874.1 409.3 L882.0 409.3 L889.9 409.2 L897.8 409.2 L905.8 409.2 L913.7 409.1 L921.6 409.0 L929.5 409.0 L937.4 408.9 L945.4 408.8 L953.3 408.8 L961.2 408.7 L969.1 408.6 L977.0 408.5 L985.0 408.4 L992.9 408.4 L1000.8 408.3 L1008.7 408.2 L1016.6 408.2 L1024.6 408.1 L1032.5 408.1 L1040.4 408.0 L1048.3 408.0 L1056.2 408.0 L1064.2 407.9 L1072.1 407.9 L1080.0 407.8" fill="none"/>
<path id="s8" d="M97.2 185.1 L105.4 185.1 L113.6 185.2 L121.8 185.2 L130.0 185.2 L138.2 185.2 L146.3 185.2 L154.5 185.1 L162.7 185.1 L170.9 185.0 L179.1 185.0 L187.3 184.9 L195.5 184.8 L203.7 184.9 L211.9 185.2 L220.1 185.8 L228.2 186.6 L236.4 187.6 L244.6 188.9 L252.8 190.5 L261.0 192.2 L269.2 194.2 L277.4 196.4 L285.6 198.8 L293.8 201.4 L302.0 204.2 L310.1 207.1 L318.3 210.2 L326.5 213.5 L334.7 216.9 L342.9 220.5 L351.1 224.1 L359.3 227.9 L367.5 231.7 L375.7 235.7 L383.9 239.7 L392.0 243.7 L400.2 247.8 L408.4 252.0 L416.6 256.2 L424.8 260.4 L433.0 264.6 L441.2 268.9 L449.4 273.2 L457.6 277.5 L465.8 281.8 L473.9 286.1 L482.1 290.4 L490.3 294.7 L498.5 299.0 L506.7 303.3 L514.9 307.5 L523.1 311.7 L531.3 315.9 L539.5 320.0 L547.6 324.0 L555.8 328.0 L564.0 331.8 L572.2 335.6 L580.4 339.3 L588.6 342.9 L596.8 346.3 L605.0 349.6 L613.2 352.8 L621.4 355.8 L629.5 358.7 L637.7 361.4 L645.9 363.9 L654.1 366.3 L662.3 368.5 L670.5 370.5 L678.7 372.2 L686.9 373.8 L695.1 375.2 L703.3 376.3 L711.4 377.2 L719.6 377.8 L727.8 378.2 L736.0 378.4 L744.2 378.4 L752.4 378.5 L760.6 378.5 L768.8 378.6 L777.0 378.6 L785.2 378.7 L793.4 378.8 L801.5 378.8 L809.7 378.9 L817.9 378.9 L826.1 378.9 L834.3 379.0 L842.5 379.0 L850.7 379.0 L858.9 379.0 L867.1 379.0 L875.3 379.0 L883.4 379.0 L891.6 378.9 L899.8 378.9 L908.0 378.8 L916.2 378.8 L924.4 378.7 L932.6 378.7 L940.8 378.6 L949.0 378.5 L957.1 378.5 L965.3 378.4 L973.5 378.4 L981.7 378.3 L989.9 378.3 L998.1 378.2 L1006.3 378.2 L1014.5 378.1 L1022.7 378.1 L1030.9 378.1 L1039.1 378.0 L1047.2 378.0 L1055.4 378.0 L1063.6 377.9 L1071.8 377.9 L1080.0 377.8" fill="none"/>
<path id="s9" d="M205.2 558.2 L212.5 557.8 L219.8 557.4 L227.1 556.8 L234.4 556.1 L241.7 555.2 L248.9 554.2 L256.2 553.1 L263.5 551.8 L270.8 550.4 L278.1 548.9 L285.4 547.3 L292.7 545.6 L300.0 543.8 L307.3 541.8 L314.6 539.8 L321.8 537.6 L329.1 535.3 L336.4 533.0 L343.7 530.5 L351.0 528.0 L358.3 525.4 L365.6 522.8 L372.9 520.1 L380.2 517.3 L387.4 514.5 L394.7 511.7 L402.0 508.8 L409.3 505.9 L416.6 503.0 L423.9 500.1 L431.2 497.1 L438.5 494.2 L445.8 491.3 L453.1 488.4 L460.4 485.4 L467.6 482.5 L474.9 479.6 L482.2 476.8 L489.5 473.9 L496.8 471.1 L504.1 468.3 L511.4 465.5 L518.7 462.7 L526.0 460.0 L533.3 457.2 L540.5 454.6 L547.8 451.9 L555.1 449.3 L562.4 446.7 L569.7 444.2 L577.0 441.8 L584.3 439.4 L591.6 437.0 L598.9 434.8 L606.1 432.6 L613.4 430.5 L620.7 428.5 L628.0 426.6 L635.3 424.8 L642.6 423.1 L649.9 421.6 L657.2 420.1 L664.5 418.8 L671.8 417.6 L679.0 416.5 L686.3 415.5 L693.6 414.7 L700.9 414.0 L708.2 413.4 L715.5 412.9 L722.8 412.6 L730.1 412.4 L737.4 412.4 L744.7 412.4 L752.0 412.3 L759.2 412.2 L766.5 412.1 L773.8 412.0 L781.1 411.9 L788.4 411.7 L795.7 411.6 L803.0 411.4 L810.3 411.2 L817.6 411.1 L824.9 410.9 L832.1 410.7 L839.4 410.6 L846.7 410.4 L854.0 410.3 L861.3 410.1 L868.6 410.0 L875.9 409.9 L883.2 409.9 L890.5 409.8 L897.8 409.8 L905.0 409.8 L912.3 409.8 L919.6 409.8 L926.9 409.8 L934.2 409.9 L941.5 409.9 L948.8 410.0 L956.1 410.1 L963.4 410.2 L970.6 410.3 L977.9 410.3 L985.2 410.4 L992.5 410.5 L999.8 410.6 L1007.1 410.7 L1014.4 410.8 L1021.7 410.8 L1029.0 410.9 L1036.3 411.0 L1043.5 411.0 L1050.8 411.1 L1058.1 411.2 L1065.4 411.3 L1072.7 411.3 L1080.0 411.4" fill="none"/>
<path id="s10" d="M172.8 225.8 L180.4 225.8 L187.9 225.8 L195.5 225.9 L203.0 226.0 L210.6 226.3 L218.2 226.8 L225.7 227.4 L233.3 228.2 L240.8 229.1 L248.4 230.2 L256.0 231.5 L263.5 232.9 L271.1 234.4 L278.6 236.1 L286.2 237.8 L293.8 239.7 L301.3 241.8 L308.9 243.9 L316.4 246.1 L324.0 248.4 L331.6 250.8 L339.1 253.3 L346.7 255.9 L354.2 258.5 L361.8 261.2 L369.4 264.1 L376.9 267.0 L384.5 269.9 L392.0 272.9 L399.6 276.0 L407.2 279.1 L414.7 282.3 L422.3 285.4 L429.8 288.6 L437.4 291.8 L445.0 295.1 L452.5 298.3 L460.1 301.4 L467.6 304.6 L475.2 307.8 L482.8 310.9 L490.3 313.9 L497.9 317.0 L505.4 320.0 L513.0 323.0 L520.6 326.0 L528.1 328.9 L535.7 331.8 L543.2 334.7 L550.8 337.5 L558.4 340.3 L565.9 343.0 L573.5 345.7 L581.0 348.4 L588.6 351.0 L596.2 353.5 L603.7 356.0 L611.3 358.4 L618.8 360.6 L626.4 362.8 L634.0 364.9 L641.5 366.9 L649.1 368.7 L656.6 370.4 L664.2 372.0 L671.8 373.5 L679.3 374.8 L686.9 376.0 L694.4 377.0 L702.0 377.8 L709.6 378.5 L717.1 379.1 L724.7 379.5 L732.2 379.7 L739.8 379.8 L747.4 379.8 L754.9 379.9 L762.5 379.9 L770.0 380.0 L777.6 380.0 L785.2 380.0 L792.7 380.1 L800.3 380.1 L807.8 380.1 L815.4 380.1 L823.0 380.1 L830.5 380.1 L838.1 380.1 L845.6 380.1 L853.2 380.1 L860.8 380.1 L868.3 380.1 L875.9 380.1 L883.4 380.2 L891.0 380.2 L898.6 380.2 L906.1 380.2 L913.7 380.2 L921.2 380.2 L928.8 380.2 L936.4 380.1 L943.9 380.1 L951.5 380.0 L959.0 380.0 L966.6 379.9 L974.2 379.8 L981.7 379.8 L989.3 379.7 L996.8 379.6 L1004.4 379.6 L1012.0 379.6 L1019.5 379.5 L1027.1 379.5 L1034.6 379.6 L1042.2 379.6 L1049.8 379.6 L1057.3 379.7 L1064.9 379.7 L1072.4 379.8 L1080.0 379.8" fill="none"/>
<path id="s11" d="M54.0 594.7 L62.6 594.7 L71.1 594.6 L79.7 594.6 L88.2 594.6 L96.8 594.6 L105.3 594.6 L113.8 594.6 L122.4 594.6 L130.9 594.6 L139.5 594.6 L148.1 594.7 L156.6 594.7 L165.2 594.7 L173.7 594.8 L182.3 594.8 L190.8 594.8 L199.3 594.8 L207.9 594.6 L216.4 594.1 L225.0 593.4 L233.6 592.4 L242.1 591.2 L250.7 589.8 L259.2 588.2 L267.8 586.3 L276.3 584.3 L284.8 582.1 L293.4 579.6 L302.0 577.0 L310.5 574.2 L319.1 571.3 L327.6 568.2 L336.1 564.9 L344.7 561.5 L353.3 558.0 L361.8 554.4 L370.3 550.6 L378.9 546.8 L387.4 542.9 L396.0 539.0 L404.6 534.9 L413.1 530.8 L421.6 526.7 L430.2 522.5 L438.7 518.2 L447.3 514.0 L455.8 509.7 L464.4 505.4 L472.9 501.1 L481.5 496.8 L490.1 492.6 L498.6 488.3 L507.1 484.2 L515.7 480.0 L524.2 476.0 L532.8 472.0 L541.4 468.1 L549.9 464.3 L558.5 460.6 L567.0 457.0 L575.5 453.5 L584.1 450.0 L592.6 446.7 L601.2 443.6 L609.8 440.5 L618.3 437.6 L626.9 434.7 L635.4 432.1 L643.9 429.6 L652.5 427.2 L661.0 425.1 L669.6 423.1 L678.1 421.3 L686.7 419.8 L695.3 418.4 L703.8 417.3 L712.4 416.5 L720.9 416.0 L729.5 415.7 L738.0 415.6 L746.6 415.7 L755.1 415.7 L763.6 415.8 L772.2 415.8 L780.8 415.9 L789.3 415.9 L797.9 416.0 L806.4 416.0 L815.0 416.0 L823.5 416.0 L832.0 416.0 L840.6 415.9 L849.1 415.8 L857.7 415.7 L866.2 415.6 L874.8 415.5 L883.4 415.3 L891.9 415.1 L900.5 415.0 L909.0 414.8 L917.6 414.6 L926.1 414.5 L934.6 414.3 L943.2 414.2 L951.8 414.1 L960.3 414.0 L968.9 413.9 L977.4 413.7 L986.0 413.6 L994.5 413.5 L1003.1 413.4 L1011.6 413.3 L1020.1 413.2 L1028.7 413.1 L1037.3 413.0 L1045.8 412.9 L1054.3 412.8 L1062.9 412.8 L1071.5 412.7 L1080.0 412.7" fill="none"/>
<linearGradient id="fade" x1="0" y1="0" x2="1" y2="0">
<stop offset="0" stop-color="#fff" stop-opacity="0"/><stop offset="0.15" stop-color="#fff" stop-opacity="1"/>
<stop offset="0.88" stop-color="#fff" stop-opacity="1"/><stop offset="1" stop-color="#fff" stop-opacity="0"/>
</linearGradient><mask id="m2"><rect width="1080" height="640" fill="url(#fade)"/></mask></defs>
<g mask="url(#m2)"><text font-family="ui-monospace,Menlo,monospace" font-size="7.5" fill="#51678a" letter-spacing="0.5"><textPath href="#s0" startOffset="0">i'm building across boundaries · i'm building across boundaries · i'm building across boundaries · i'm building across boundaries · i'm building across boundaries · i'm building across boundaries · i'm building across boundaries · i'm building across boundaries · i'm building across boundaries · i'm building across boundaries · <animate attributeName="startOffset" from="-166" to="0" dur="26s" repeatCount="indefinite"/></textPath></text>
<text font-family="ui-monospace,Menlo,monospace" font-size="7.5" fill="#51678a" letter-spacing="0.5"><textPath href="#s1" startOffset="0">'m building across boundaries · i'm building across boundaries · 'm building across boundaries · i'm building across boundaries · 'm building across boundaries · i'm building across boundaries · 'm building across boundaries · i'm building across boundaries · 'm building across boundaries · i'm building across boundaries · 'm bu<animate attributeName="startOffset" from="0" to="-166" dur="30s" repeatCount="indefinite"/></textPath></text>
<text font-family="ui-monospace,Menlo,monospace" font-size="7.5" fill="#51678a" letter-spacing="0.5"><textPath href="#s2" startOffset="0">m building across boundaries · i'm building across boundaries · m building across boundaries · i'm building across boundaries · m building across boundaries · i'm building across boundaries · m building across boundaries · i'm building across boundaries · m building across boundaries · i'm building across boundaries · m building<animate attributeName="startOffset" from="-166" to="0" dur="34s" repeatCount="indefinite"/></textPath></text>
<text font-family="ui-monospace,Menlo,monospace" font-size="7.5" fill="#51678a" letter-spacing="0.5"><textPath href="#s3" startOffset="0"> building across boundaries · i'm building across boundaries ·  building across boundaries · i'm building across boundaries ·  building across boundaries · i'm building across boundaries ·  building across boundaries · i'm building across boundaries ·  building across boundaries · i'm building across boundaries ·  building acros<animate attributeName="startOffset" from="0" to="-166" dur="38s" repeatCount="indefinite"/></textPath></text>
<text font-family="ui-monospace,Menlo,monospace" font-size="7.5" fill="#51678a" letter-spacing="0.5"><textPath href="#s4" startOffset="0">building across boundaries · i'm building across boundaries · building across boundaries · i'm building across boundaries · building across boundaries · i'm building across boundaries · building across boundaries · i'm building across boundaries · building across boundaries · i'm building across boundaries · building across boun<animate attributeName="startOffset" from="-166" to="0" dur="42s" repeatCount="indefinite"/></textPath></text>
<text font-family="ui-monospace,Menlo,monospace" font-size="7.5" fill="#51678a" letter-spacing="0.5"><textPath href="#s5" startOffset="0">uilding across boundaries · i'm building across boundaries · uilding across boundaries · i'm building across boundaries · uilding across boundaries · i'm building across boundaries · uilding across boundaries · i'm building across boundaries · uilding across boundaries · i'm building across boundaries · uilding across boundaries<animate attributeName="startOffset" from="0" to="-166" dur="46s" repeatCount="indefinite"/></textPath></text>
<text font-family="ui-monospace,Menlo,monospace" font-size="7.5" fill="#51678a" letter-spacing="0.5"><textPath href="#s6" startOffset="0">ilding across boundaries · i'm building across boundaries · ilding across boundaries · i'm building across boundaries · ilding across boundaries · i'm building across boundaries · ilding across boundaries · i'm building across boundaries · ilding across boundaries · i'm building across boundaries · ilding across boundaries · i'm<animate attributeName="startOffset" from="-166" to="0" dur="50s" repeatCount="indefinite"/></textPath></text>
<text font-family="ui-monospace,Menlo,monospace" font-size="7.5" fill="#51678a" letter-spacing="0.5"><textPath href="#s7" startOffset="0">lding across boundaries · i'm building across boundaries · lding across boundaries · i'm building across boundaries · lding across boundaries · i'm building across boundaries · lding across boundaries · i'm building across boundaries · lding across boundaries · i'm building across boundaries · lding across boundaries · i'm build<animate attributeName="startOffset" from="0" to="-166" dur="26s" repeatCount="indefinite"/></textPath></text>
<text font-family="ui-monospace,Menlo,monospace" font-size="7.5" fill="#51678a" letter-spacing="0.5"><textPath href="#s8" startOffset="0">ding across boundaries · i'm building across boundaries · ding across boundaries · i'm building across boundaries · ding across boundaries · i'm building across boundaries · ding across boundaries · i'm building across boundaries · ding across boundaries · i'm building across boundaries · ding across boundaries · i'm building ac<animate attributeName="startOffset" from="-166" to="0" dur="30s" repeatCount="indefinite"/></textPath></text>
<text font-family="ui-monospace,Menlo,monospace" font-size="7.5" fill="#51678a" letter-spacing="0.5"><textPath href="#s9" startOffset="0">ing across boundaries · i'm building across boundaries · ing across boundaries · i'm building across boundaries · ing across boundaries · i'm building across boundaries · ing across boundaries · i'm building across boundaries · ing across boundaries · i'm building across boundaries · ing across boundaries · i'm building across b<animate attributeName="startOffset" from="0" to="-166" dur="34s" repeatCount="indefinite"/></textPath></text>
<text font-family="ui-monospace,Menlo,monospace" font-size="7.5" fill="#51678a" letter-spacing="0.5"><textPath href="#s10" startOffset="0">ng across boundaries · i'm building across boundaries · ng across boundaries · i'm building across boundaries · ng across boundaries · i'm building across boundaries · ng across boundaries · i'm building across boundaries · ng across boundaries · i'm building across boundaries · ng across boundaries · i'm building across boundar<animate attributeName="startOffset" from="-166" to="0" dur="38s" repeatCount="indefinite"/></textPath></text>
<text font-family="ui-monospace,Menlo,monospace" font-size="7.5" fill="#51678a" letter-spacing="0.5"><textPath href="#s11" startOffset="0">g across boundaries · i'm building across boundaries · g across boundaries · i'm building across boundaries · g across boundaries · i'm building across boundaries · g across boundaries · i'm building across boundaries · g across boundaries · i'm building across boundaries · g across boundaries · i'm building across boundaries · <animate attributeName="startOffset" from="0" to="-166" dur="42s" repeatCount="indefinite"/></textPath></text>
</g></svg>